<svg width="1024" height="1024" viewBox="0 0 1024 1024" fill="none" xmlns="http://www.w3.org/2000/svg">
  <defs>
    <linearGradient id="bgA" x1="148" y1="100" x2="906" y2="946" gradientUnits="userSpaceOnUse">
      <stop stop-color="#EDE9FE"/>
      <stop offset="0.55" stop-color="#FFF8F3"/>
      <stop offset="1" stop-color="#CCFBF1"/>
    </linearGradient>
    <radialGradient id="haloA1" cx="0" cy="0" r="1" gradientUnits="userSpaceOnUse" gradientTransform="translate(820 180) rotate(140) scale(520 420)">
      <stop stop-color="#C4B5FD" stop-opacity="0.70"/>
      <stop offset="1" stop-color="#C4B5FD" stop-opacity="0"/>
    </radialGradient>
    <radialGradient id="haloA2" cx="0" cy="0" r="1" gradientUnits="userSpaceOnUse" gradientTransform="translate(220 870) rotate(-20) scale(560 440)">
      <stop stop-color="#FDBA74" stop-opacity="0.55"/>
      <stop offset="1" stop-color="#FDBA74" stop-opacity="0"/>
    </radialGradient>
    <radialGradient id="haloA3" cx="0" cy="0" r="1" gradientUnits="userSpaceOnUse" gradientTransform="translate(520 540) rotate(0) scale(520 420)">
      <stop stop-color="#99F6E4" stop-opacity="0.45"/>
      <stop offset="1" stop-color="#99F6E4" stop-opacity="0"/>
    </radialGradient>

    <linearGradient id="markA" x1="260" y1="420" x2="800" y2="720" gradientUnits="userSpaceOnUse">
      <stop stop-color="#2D9B87"/>
      <stop offset="1" stop-color="#3CB8A2"/>
    </linearGradient>

    <filter id="softShadow" x="0" y="0" width="1024" height="1024" filterUnits="userSpaceOnUse" color-interpolation-filters="sRGB">
      <feDropShadow dx="0" dy="18" stdDeviation="20" flood-color="#3D4D63" flood-opacity="0.18"/>
      <feDropShadow dx="0" dy="6" stdDeviation="10" flood-color="#6D28D9" flood-opacity="0.08"/>
    </filter>
  </defs>

  <rect x="72" y="72" width="880" height="880" rx="210" fill="url(#bgA)"/>
  <rect x="72" y="72" width="880" height="880" rx="210" fill="url(#haloA1)"/>
  <rect x="72" y="72" width="880" height="880" rx="210" fill="url(#haloA2)"/>
  <rect x="72" y="72" width="880" height="880" rx="210" fill="url(#haloA3)"/>

  <g filter="url(#softShadow)">
    <!-- Horizon line -->
    <path d="M280 442C396 398 628 398 744 442" stroke="url(#markA)" stroke-width="28" stroke-linecap="round" opacity="0.9"/>

    <!-- Wave -->
    <path
      d="M248 594C318 536 418 510 512 510C606 510 706 536 776 594C732 650 650 692 512 692C374 692 292 650 248 594Z"
      fill="url(#markA)"
      opacity="0.95"
    />

    <!-- Inner wave cut for depth -->
    <path
      d="M324 590C370 560 438 544 512 544C586 544 654 560 700 590C672 620 616 642 512 642C408 642 352 620 324 590Z"
      fill="#FFFDFF"
      opacity="0.72"
    />

    <!-- AI spark -->
    <path
      d="M760 352L777 398L823 415L777 432L760 478L743 432L697 415L743 398L760 352Z"
      fill="#5B21B6"
      opacity="0.92"
    />
  </g>
</svg>

